<?xml version="1.0" encoding="UTF-8"?>
<svg width="157px" height="30px" viewBox="0 0 157 30" version="1.1" xmlns="http://www.w3.org/2000/svg" xmlns:xlink="http://www.w3.org/1999/xlink">
  <title>Logos / Nimble Text / White</title>
  <g id="Nimble-Web-Refresh-v1" stroke="none" stroke-width="1" fill="none" fill-rule="evenodd">
    <g id="Nimble-Updated-Homepage-v2" transform="translate(-129.000000, -35.000000)" fill="#ED2924">
      <g id="Header" transform="translate(129.000000, 31.000000)">
        <g id="Logos-/-Nimble-Text-/-White" transform="translate(0.000000, 4.000000)">
          <g id="Nimble-Text">
            <polygon id="Fill-1" points="18.28424 0.2854 18.28424 19.711 18.44744 21.7838 17.67504 19.8738 5.27984 0.2854 0.19984 0.2854 0.19984 29.2614 5.23904 29.2614 5.23904 9.551 5.03584 7.5198 5.84824 9.429 18.40624 29.2614 23.32344 29.2614 23.32344 0.2854"></polygon>
            <polygon id="Fill-2" points="27.75296 0.2854 27.75296 5.0402 33.11696 5.0402 33.11696 24.3034 27.75296 24.3034 27.75296 29.2614 43.56216 29.2614 43.56216 24.3034 38.19736 24.3034 38.19736 5.0402 43.56216 5.0402 43.56216 0.2854"></polygon>
            <path d="M86.69372,29.26132 L86.69372,0.28572 L97.78812,0.28572 C101.60812,0.28572 104.38532,0.92932 106.11892,2.21612 C107.85252,3.50292 108.71972,5.35212 108.71972,7.76292 C108.71972,9.49692 108.37492,10.90612 107.68412,11.98932 C106.99292,13.07372 105.97012,13.88612 104.61572,14.42812 C106.13292,14.94292 107.29052,15.72212 108.09012,16.76492 C108.88932,17.80772 109.28932,19.22372 109.28932,21.01132 C109.28932,23.63972 108.38772,25.67172 106.58612,27.10732 C104.78452,28.54372 102.01452,29.26132 98.27532,29.26132 L86.69372,29.26132 Z M91.89532,4.59292 L91.89532,12.27412 L97.99132,12.27412 C99.77972,12.27412 101.14052,11.96292 102.07532,11.33932 C103.01012,10.71652 103.47732,9.71372 103.47732,8.33252 C103.47732,7.05892 103.04372,6.11732 102.17732,5.50732 C101.30932,4.89852 99.90132,4.59292 97.95092,4.59292 L91.89532,4.59292 Z M91.89532,16.58212 L91.89532,24.70972 L97.58492,24.70972 C99.86092,24.70972 101.47212,24.35772 102.42052,23.65292 C103.36892,22.94932 103.84292,21.91972 103.84292,20.56492 C103.84292,19.15612 103.33532,18.14012 102.31932,17.51692 C101.30292,16.89332 99.75212,16.58212 97.66612,16.58212 L91.89532,16.58212 Z" id="Fill-3"></path>
            <polygon id="Fill-5" points="113.31236 0.2854 113.31236 29.2614 132.65676 29.2614 132.65676 24.263 118.67636 24.263 118.67636 0.2854"></polygon>
            <polygon id="Fill-6" points="136.43588 0.2854 136.43588 29.2614 156.99988 29.2614 156.99988 24.5066 141.59748 24.5066 141.59748 16.9478 154.07388 16.9478 154.07388 12.315 141.59748 12.315 141.59748 4.8774 156.30908 4.8774 156.30908 0.2854"></polygon>
            <path d="M72.4152,0 C69.5172,0 66.9108,1.27 65.1208,3.2812 C63.3304,1.27 60.724,0 57.826,0 C52.44,0 48.0584,4.3816 48.0584,9.7676 L48.0584,29.2612 L53.0052,29.2612 L53.0052,9.7676 C53.0052,7.1092 55.1676,4.9464 57.826,4.9464 C60.4848,4.9464 62.6476,7.1092 62.6476,9.7676 L62.6476,29.2612 L67.5936,29.2612 L67.5936,9.7676 C67.5936,7.1092 69.7568,4.9464 72.4152,4.9464 C75.0736,4.9464 77.2364,7.1092 77.2364,9.7676 L77.2364,29.2612 L82.1828,29.2612 L82.1828,9.7676 C82.1828,4.3816 77.8012,0 72.4152,0" id="Fill-7"></path>
          </g>
        </g>
      </g>
    </g>
  </g>
</svg>